<svg width="50" height="50" viewBox="0 0 50 50" fill="none" xmlns="http://www.w3.org/2000/svg">
<path d="M17.2225 9.44428C17.2225 5.14873 20.7047 1.6665 25.0002 1.6665C29.2958 1.6665 32.778 5.14873 32.778 9.44428V26.5554C32.778 30.8509 29.2958 34.3332 25.0002 34.3332C20.7047 34.3332 17.2225 30.8509 17.2225 26.5554V9.44428Z" fill="white"/>
<path d="M12.5558 21.8887C13.4149 21.8887 14.1114 22.5852 14.1114 23.4443V26.5554C14.1114 32.5692 18.9865 37.4443 25.0002 37.4443C31.014 37.4443 35.8891 32.5692 35.8891 26.5554V23.4443C35.8891 22.5852 36.5856 21.8887 37.4447 21.8887C38.3038 21.8887 39.0002 22.5852 39.0002 23.4443V26.5554C39.0002 33.7616 33.5557 39.6961 26.5558 40.4699V45.2221H32.778C33.6371 45.2221 34.3336 45.9185 34.3336 46.7776C34.3336 47.6367 33.6371 48.3332 32.778 48.3332H17.2225C16.3634 48.3332 15.6669 47.6367 15.6669 46.7776C15.6669 45.9185 16.3634 45.2221 17.2225 45.2221H23.4447V40.4699C16.4448 39.6961 11.0002 33.7616 11.0002 26.5554V23.4443C11.0002 22.5852 11.6967 21.8887 12.5558 21.8887Z" fill="white"/>
</svg>
